<svg width="80" height="59" viewBox="0 0 80 59" fill="none" xmlns="http://www.w3.org/2000/svg">
<g clip-path="url(#clip0_24_40)">
<path d="M27.606 6.56214H31.6645V28.156L33.6203 26.2335V4.63965H29.5727L27.606 6.56214Z" fill="#5669FF"/>
<path d="M46.8853 4.63641L44.9295 6.56214H50.4382V13.8941C50.4382 14.4318 50.2209 14.9474 49.8342 15.3275C49.4474 15.7077 48.9229 15.9212 48.376 15.9212H42.9419V0L40.9861 1.89985V15.9169H35.9194V17.8394H40.9861V24.476L42.9419 22.5481V17.8394H48.7731C49.7331 17.8394 50.6538 17.4645 51.3326 16.7972C52.0115 16.13 52.3929 15.2249 52.3929 14.2812V4.63641H46.8853Z" fill="#5669FF"/>
<path d="M10.1464 42.7143H1.44792V37.7275H0V49.8318H1.44792V44.1376H10.1464V49.8318H11.5955V37.7275H10.1464V42.7143Z" fill="#5669FF"/>
<path d="M22.8015 38.0186V39.1508V42.7143V44.1376V48.4085V49.4166V49.8318H34.397V48.4085H24.2494V44.1376H34.397V42.7143H24.2494V39.1508H34.397V37.7275H22.8015V38.0186Z" fill="#5669FF"/>
<path d="M46.6636 38.7691C46.3217 39.0945 46.0512 39.4852 45.8688 39.9173C45.6864 40.3494 45.5959 40.8136 45.6029 41.2813V49.8318H47.0574V44.1376H53.5731C54.1485 44.1387 54.7002 44.3632 55.108 44.7623C55.5158 45.1613 55.7467 45.7026 55.7505 46.2682V49.8318H57.1984V46.2682C57.2099 45.7386 57.0952 45.2138 56.8634 44.7356C56.6316 44.2574 56.2891 43.8392 55.8634 43.5144C56.7527 42.8674 57.1976 42.0048 57.1984 40.9266V37.7275H49.2282C48.751 37.7198 48.2773 37.8082 47.8362 37.9873C47.3952 38.1665 46.9961 38.4325 46.6636 38.7691V38.7691ZM55.7505 40.9255C55.7542 41.1594 55.7091 41.3915 55.6179 41.6076C55.5268 41.8236 55.3916 42.019 55.2206 42.1817C55.0543 42.352 54.8542 42.487 54.6327 42.5782C54.4112 42.6695 54.173 42.7151 53.9329 42.7122H47.0574V41.2813C47.0522 41.0004 47.1057 40.7215 47.2148 40.4618C47.3239 40.2021 47.4861 39.9673 47.6914 39.7718C47.8924 39.5709 48.1326 39.4121 48.3977 39.305C48.6627 39.1979 48.9471 39.1447 49.2337 39.1486H55.7559L55.7505 40.9255Z" fill="#5669FF"/>
<path d="M78.9403 38.7691C78.6068 38.4335 78.2074 38.168 77.7664 37.989C77.3253 37.8099 76.8518 37.7209 76.3746 37.7275H72.0297C71.0697 37.7275 70.149 38.1024 69.4701 38.7696C68.7913 39.4369 68.4099 40.342 68.4099 41.2857V49.8361H69.8589V44.1376H78.5574V49.8318H80.0054V41.2813C80.0119 40.8133 79.9207 40.3489 79.7376 39.9168C79.5544 39.4847 79.283 39.0941 78.9403 38.7691ZM69.8535 42.7143V41.2813C69.8486 41.0005 69.9023 40.7216 70.0114 40.462C70.1204 40.2024 70.2824 39.9675 70.4875 39.7718C70.6884 39.5709 70.9286 39.4121 71.1937 39.305C71.4588 39.1979 71.7432 39.1447 72.0297 39.1486H76.3746C76.95 39.1497 77.5017 39.3742 77.9095 39.7733C78.3173 40.1723 78.5482 40.7136 78.552 41.2792V42.7122L69.8535 42.7143Z" fill="#5669FF"/>
<path d="M0 57.6641H3.01541C3.14391 57.6638 3.26706 57.6135 3.35792 57.5242C3.44878 57.4348 3.49996 57.3138 3.50025 57.1875V56.8036C3.4991 56.6764 3.44719 56.5548 3.35569 56.4648C3.26419 56.3749 3.14042 56.3239 3.01102 56.3227H0V55.9443H3.01102C3.12626 55.9443 3.24037 55.9666 3.34684 56.0099C3.45331 56.0533 3.55004 56.1168 3.63153 56.1969C3.71302 56.277 3.77766 56.3721 3.82176 56.4768C3.86586 56.5814 3.88855 56.6936 3.88855 56.8069V57.1907C3.88683 57.4172 3.79452 57.634 3.63156 57.7942C3.46859 57.9544 3.24806 58.0451 3.01761 58.0468H0.390501V59.0032H0V57.6641Z" fill="#5669FF"/>
<path d="M5.88721 59V55.9443H6.27881V57.305H9.38745V55.9443H9.77357V59H9.38745V57.6856H6.27881V58.9957L5.88721 59Z" fill="#5669FF"/>
<path d="M13.7289 55.9443L15.4664 59H15.0178L13.5216 56.3583L12.0287 59H11.5801L13.3121 55.9443H13.7289Z" fill="#5669FF"/>
<path d="M20.056 55.9443C20.1991 55.9398 20.3417 55.9636 20.4753 56.0143C20.6088 56.065 20.7306 56.1416 20.8335 56.2395C20.9364 56.3375 21.0181 56.4547 21.074 56.5843C21.1298 56.7139 21.1586 56.8532 21.1586 56.9939C21.1586 57.1347 21.1298 57.274 21.074 57.4036C21.0181 57.5332 20.9364 57.6504 20.8335 57.7484C20.7306 57.8463 20.6088 57.9229 20.4753 57.9736C20.3417 58.0243 20.1991 58.0481 20.056 58.0436H19.7763L21.1266 59H20.4739L19.1192 58.0436H17.6307V59H17.2402V57.6641H20.056C20.237 57.6641 20.4105 57.5934 20.5385 57.4676C20.6664 57.3419 20.7383 57.1713 20.7383 56.9934C20.7383 56.8155 20.6664 56.645 20.5385 56.5192C20.4105 56.3934 20.237 56.3227 20.056 56.3227H17.2402V55.9443H20.056Z" fill="#5669FF"/>
<path d="M23.5177 55.9443L25.0732 57.0872H25.139L26.6944 55.9443H27.0487V59H26.6626V56.4457L25.2684 57.47H24.9393L23.5496 56.4435V58.9978H23.158V55.9443H23.5177Z" fill="#5669FF"/>
<path d="M30.8233 55.9443L32.5553 59H32.1078L30.6105 56.3583L29.1187 59H28.6689L30.4021 55.9443H30.8233Z" fill="#5669FF"/>
<path d="M34.0757 58.1396V56.7993C34.0777 56.573 34.1701 56.3565 34.3331 56.1965C34.496 56.0366 34.7164 55.946 34.9466 55.9443H37.5715L37.4739 56.3227H34.951C34.8877 56.323 34.825 56.3356 34.7667 56.3597C34.7083 56.3838 34.6553 56.419 34.6108 56.4633C34.5662 56.5076 34.531 56.56 34.5072 56.6177C34.4833 56.6753 34.4712 56.7371 34.4717 56.7993V58.1396C34.4714 58.2021 34.4837 58.2642 34.5079 58.322C34.5321 58.3799 34.5677 58.4325 34.6126 58.4768C34.6576 58.5211 34.711 58.5562 34.7699 58.5801C34.8287 58.604 34.8918 58.6163 34.9554 58.6161H37.9664L37.8688 59H34.951C34.719 58.9994 34.4967 58.9086 34.3327 58.7474C34.1687 58.5861 34.0763 58.3676 34.0757 58.1396Z" fill="#5669FF"/>
<path d="M43.6408 55.9443L43.5431 56.3227H39.7544V55.9443H43.6408ZM39.7544 59V57.2748H42.863L42.7654 57.6533H40.1405V58.6108H43.6408L43.5431 58.9946L39.7544 59Z" fill="#5669FF"/>
<path d="M45.4198 55.9443H45.8103V58.1396C45.8106 58.2657 45.8616 58.3866 45.9522 58.4759C46.0428 58.5651 46.1657 58.6156 46.294 58.6161H48.4308C48.5596 58.6159 48.6831 58.5657 48.7745 58.4764C48.8659 58.3872 48.9178 58.2662 48.9189 58.1396V55.9443H49.3061V58.1396C49.3061 58.3683 49.2137 58.5877 49.0491 58.7495C48.8846 58.9113 48.6614 59.0022 48.4286 59.0022H46.2896C46.0569 59.0022 45.8337 58.9113 45.6691 58.7495C45.5046 58.5877 45.4121 58.3683 45.4121 58.1396L45.4198 55.9443Z" fill="#5669FF"/>
<path d="M51.3156 55.9443H55.1044L55.0068 56.3227H53.3537V59H52.9676V56.3227H51.218L51.3156 55.9443Z" fill="#5669FF"/>
<path d="M56.9583 55.9443H57.3499V59H56.9583V55.9443Z" fill="#5669FF"/>
<path d="M59.5042 58.1396V56.7993C59.5062 56.573 59.5986 56.3565 59.7615 56.1965C59.9245 56.0366 60.1448 55.946 60.3751 55.9443H63L62.9024 56.3227H60.3795C60.3162 56.323 60.2535 56.3356 60.1951 56.3597C60.1367 56.3838 60.0838 56.419 60.0392 56.4633C59.9947 56.5076 59.9595 56.56 59.9356 56.6177C59.9118 56.6753 59.8997 56.7371 59.9001 56.7993V58.1396C59.8999 58.2021 59.9122 58.2642 59.9363 58.322C59.9605 58.3799 59.9961 58.4325 60.0411 58.4768C60.0861 58.5211 60.1395 58.5562 60.1983 58.5801C60.2572 58.604 60.3202 58.6163 60.3839 58.6161H63.3905L63.2929 59H60.3795C60.1475 58.9994 59.9252 58.9086 59.7612 58.7474C59.5971 58.5861 59.5047 58.3676 59.5042 58.1396Z" fill="#5669FF"/>
<path d="M67.0838 55.9443L68.8158 59H68.3672L66.871 56.3583L65.3759 59H64.9272L66.6593 55.9443H67.0838Z" fill="#5669FF"/>
<path d="M70.8352 55.9443V58.6161H74.3344L74.2367 59H70.448V55.9443H70.8352Z" fill="#5669FF"/>
<path d="M76.1135 56.8036C76.1135 56.5749 76.206 56.3555 76.3705 56.1937C76.5351 56.0319 76.7583 55.941 76.9911 55.941H79.6116L79.5183 56.3195H76.9954C76.8663 56.3195 76.7424 56.3699 76.6511 56.4597C76.5597 56.5495 76.5084 56.6713 76.5084 56.7982C76.5084 56.9252 76.5597 57.047 76.6511 57.1368C76.7424 57.2265 76.8663 57.277 76.9954 57.277H79.1322C79.365 57.277 79.5882 57.3679 79.7527 57.5296C79.9173 57.6914 80.0098 57.9108 80.0098 58.1396C80.0098 58.3683 79.9173 58.5877 79.7527 58.7495C79.5882 58.9113 79.365 59.0022 79.1322 59.0022H76.5007L76.5984 58.6183H79.1213C79.2504 58.6183 79.3743 58.5679 79.4656 58.4781C79.557 58.3883 79.6083 58.2665 79.6083 58.1396C79.6083 58.0126 79.557 57.8908 79.4656 57.801C79.3743 57.7113 79.2504 57.6608 79.1213 57.6608H76.9889C76.7575 57.6603 76.5356 57.5699 76.3717 57.4093C76.2078 57.2488 76.115 57.0311 76.1135 56.8036Z" fill="#5669FF"/>
</g>
<defs>
<clipPath id="clip0_24_40">
<rect width="80" height="59" fill="white"/>
</clipPath>
</defs>
</svg>
